# xmcd CD database file
#
# Track frame offsets:
#	150
#	14280
#	29133
#	43698
#	60045
#	73944
#	86655
#	99444
#	113739
#	126233
#	139833
#	154596
#	168897
#	181086
#	195633
#	207348
#	218373
#	230310
#	243045
#	255828
#
# Disc length: 3574 seconds
#
# Revision: 0
# Processed by: cddbd v1.5.2PL0 Copyright (c) Steve Scherf et al.
# Submitted via: CDex 1.70beta2
#
DISCID=000df414
DTITLE=Dizzy Gilliespie - Dizzy Atmosphere cd2
DYEAR=2003
DGENRE=Jazz
TTITLE0=Hey Pete! Let's Eat Mo' Meat
TTITLE1=52nd Street Theme
TTITLE2=Duff Capers
TTITLE3=Lover Come Back to Me
TTITLE4=Algo Blueno
TTITLE5=Cool Breeze
TTITLE6=Good Bait
TTITLE7=Manteca
TTITLE8=Minor Walk
TTITLE9=Ow!
TTITLE10=Stay On It
TTITLE11=A Night In Tunisia
TTITLE12=Anthropology
TTITLE13=Emanon
TTITLE14=Our Delight
TTITLE15=Ray's Idea
TTITLE16=That's Earl, Brother
TTITLE17=All The Things You Are
TTITLE18=Dizzy Atmosphere
TTITLE19=Groovin' High
EXTD=YEAR: 2003
EXTT0=
EXTT1=
EXTT2=
EXTT3=
EXTT4=
EXTT5=
EXTT6=
EXTT7=
EXTT8=
EXTT9=
EXTT10=
EXTT11=
EXTT12=
EXTT13=
EXTT14=
EXTT15=
EXTT16=
EXTT17=
EXTT18=
EXTT19=
PLAYORDER=
